<?xml version="1.0" encoding="utf-8"?>
<!-- Generator: Adobe Illustrator 16.0.0, SVG Export Plug-In . SVG Version: 6.00 Build 0)  -->
<!DOCTYPE svg PUBLIC "-//W3C//DTD SVG 1.1//EN" "http://www.w3.org/Graphics/SVG/1.1/DTD/svg11.dtd">
<svg version="1.1" xmlns="http://www.w3.org/2000/svg" xmlns:xlink="http://www.w3.org/1999/xlink" x="0px" y="0px" width="65.75px"
	 height="28.25px" viewBox="0 0 65.75 28.25" enable-background="new 0 0 65.75 28.25" xml:space="preserve">
<g id="Layer_1" display="none">
	<g display="inline">
		<g>
			<ellipse fill="none" stroke="#FF4081" stroke-width="2" stroke-miterlimit="10" cx="32.083" cy="15.878" rx="7.914" ry="5.081"/>
			<circle fill="#FF4081" stroke="#FF4081" stroke-miterlimit="10" cx="32.084" cy="15.878" r="2.96"/>
			<g>
				
					<line fill="#FFFFFF" stroke="#FF4081" stroke-width="2" stroke-linecap="round" stroke-linejoin="round" stroke-miterlimit="10" x1="32.057" y1="7.298" x2="32.057" y2="10.371"/>
				
					<line fill="#FFFFFF" stroke="#FF4081" stroke-width="2" stroke-linecap="round" stroke-linejoin="round" stroke-miterlimit="10" x1="23.094" y1="11.167" x2="25.364" y2="12.917"/>
				
					<line fill="#FFFFFF" stroke="#FF4081" stroke-width="2" stroke-linecap="round" stroke-linejoin="round" stroke-miterlimit="10" x1="28.671" y1="7.603" x2="29.523" y2="10.595"/>
				
					<line fill="#FFFFFF" stroke="#FF4081" stroke-width="2" stroke-linecap="round" stroke-linejoin="round" stroke-miterlimit="10" x1="35.32" y1="7.603" x2="34.468" y2="10.595"/>
				
					<line fill="#FFFFFF" stroke="#FF4081" stroke-width="2" stroke-linecap="round" stroke-linejoin="round" stroke-miterlimit="10" x1="25.541" y1="8.834" x2="27.055" y2="11.555"/>
				
					<line fill="#FFFFFF" stroke="#FF4081" stroke-width="2" stroke-linecap="round" stroke-linejoin="round" stroke-miterlimit="10" x1="41.072" y1="11.167" x2="38.802" y2="12.917"/>
				
					<line fill="#FFFFFF" stroke="#FF4081" stroke-width="2" stroke-linecap="round" stroke-linejoin="round" stroke-miterlimit="10" x1="38.625" y1="8.834" x2="37.113" y2="11.555"/>
			</g>
		</g>
		<circle fill="#FFFFFF" cx="31.175" cy="15.25" r="1.194"/>
	</g>
</g>
<g id="Layer_2" display="none">
	<g display="inline">
		<g>
			<ellipse fill="none" stroke="#AAAAAA" stroke-width="2" stroke-miterlimit="10" cx="32.083" cy="15.878" rx="7.914" ry="5.081"/>
			<circle fill="#AAAAAA" stroke="#AAAAAA" stroke-miterlimit="10" cx="32.084" cy="15.878" r="2.96"/>
			<g>
				
					<line fill="#FFFFFF" stroke="#AAAAAA" stroke-width="2" stroke-linecap="round" stroke-linejoin="round" stroke-miterlimit="10" x1="32.057" y1="7.298" x2="32.057" y2="10.371"/>
				
					<line fill="#FFFFFF" stroke="#AAAAAA" stroke-width="2" stroke-linecap="round" stroke-linejoin="round" stroke-miterlimit="10" x1="23.094" y1="11.167" x2="25.364" y2="12.917"/>
				
					<line fill="#FFFFFF" stroke="#AAAAAA" stroke-width="2" stroke-linecap="round" stroke-linejoin="round" stroke-miterlimit="10" x1="28.671" y1="7.603" x2="29.523" y2="10.595"/>
				
					<line fill="#FFFFFF" stroke="#AAAAAA" stroke-width="2" stroke-linecap="round" stroke-linejoin="round" stroke-miterlimit="10" x1="35.32" y1="7.603" x2="34.468" y2="10.595"/>
				
					<line fill="#FFFFFF" stroke="#AAAAAA" stroke-width="2" stroke-linecap="round" stroke-linejoin="round" stroke-miterlimit="10" x1="25.541" y1="8.834" x2="27.055" y2="11.555"/>
				
					<line fill="#FFFFFF" stroke="#AAAAAA" stroke-width="2" stroke-linecap="round" stroke-linejoin="round" stroke-miterlimit="10" x1="41.072" y1="11.167" x2="38.802" y2="12.917"/>
				
					<line fill="#FFFFFF" stroke="#AAAAAA" stroke-width="2" stroke-linecap="round" stroke-linejoin="round" stroke-miterlimit="10" x1="38.625" y1="8.834" x2="37.113" y2="11.555"/>
			</g>
		</g>
		<circle fill="#FFFFFF" cx="31.175" cy="15.25" r="1.194"/>
	</g>
</g>
<g id="Layer_3" display="none">
	<g display="inline">
		<path fill="none" stroke="#AAAAAA" stroke-width="2" stroke-miterlimit="10" d="M49.431,14.125c0,5.31-4.304,9.612-9.612,9.612
			H25.182c-5.309,0-9.612-4.303-9.612-9.612l0,0c0-5.31,4.304-9.612,9.612-9.612h14.637C45.127,4.513,49.431,8.815,49.431,14.125
			L49.431,14.125z"/>
		<circle fill="#AAAAAA" cx="26.111" cy="14.126" r="7.196"/>
	</g>
</g>
<g id="Layer_4" display="none">
	<g display="inline">
		<path fill="#FF4081" stroke="#FF4081" stroke-width="2" stroke-miterlimit="10" d="M15.569,14.125c0,5.31,4.304,9.612,9.612,9.612
			h14.637c5.309,0,9.612-4.303,9.612-9.612l0,0c0-5.31-4.304-9.612-9.612-9.612H25.182C19.873,4.513,15.569,8.815,15.569,14.125
			L15.569,14.125z"/>
		<circle fill="#FFFFFF" cx="38.889" cy="14.126" r="7.196"/>
	</g>
</g>
<g id="Layer_5">
	<g>
		<g>
			<g>
				
					<ellipse fill="none" stroke="#AAAAAA" stroke-width="2" stroke-miterlimit="10" cx="12.969" cy="15.875" rx="7.914" ry="5.081"/>
				<circle fill="#AAAAAA" stroke="#AAAAAA" stroke-miterlimit="10" cx="12.97" cy="15.875" r="2.96"/>
				<g>
					
						<line fill="#FFFFFF" stroke="#AAAAAA" stroke-width="2" stroke-linecap="round" stroke-linejoin="round" stroke-miterlimit="10" x1="12.942" y1="7.294" x2="12.942" y2="10.367"/>
					
						<line fill="#FFFFFF" stroke="#AAAAAA" stroke-width="2" stroke-linecap="round" stroke-linejoin="round" stroke-miterlimit="10" x1="3.979" y1="11.164" x2="6.25" y2="12.914"/>
					
						<line fill="#FFFFFF" stroke="#AAAAAA" stroke-width="2" stroke-linecap="round" stroke-linejoin="round" stroke-miterlimit="10" x1="9.557" y1="7.599" x2="10.409" y2="10.591"/>
					
						<line fill="#FFFFFF" stroke="#AAAAAA" stroke-width="2" stroke-linecap="round" stroke-linejoin="round" stroke-miterlimit="10" x1="16.206" y1="7.599" x2="15.354" y2="10.591"/>
					
						<line fill="#FFFFFF" stroke="#AAAAAA" stroke-width="2" stroke-linecap="round" stroke-linejoin="round" stroke-miterlimit="10" x1="6.427" y1="8.831" x2="7.94" y2="11.551"/>
					
						<line fill="#FFFFFF" stroke="#AAAAAA" stroke-width="2" stroke-linecap="round" stroke-linejoin="round" stroke-miterlimit="10" x1="21.958" y1="11.164" x2="19.688" y2="12.914"/>
					
						<line fill="#FFFFFF" stroke="#AAAAAA" stroke-width="2" stroke-linecap="round" stroke-linejoin="round" stroke-miterlimit="10" x1="19.511" y1="8.831" x2="17.999" y2="11.551"/>
				</g>
			</g>
			<circle fill="#FFFFFF" cx="12.061" cy="15.246" r="1.194"/>
		</g>
		<path fill="#FF4081" stroke="#FF4081" stroke-width="2" stroke-miterlimit="10" d="M27.909,14.125c0,5.31,4.304,9.612,9.612,9.612
			h14.637c5.309,0,9.612-4.303,9.612-9.612l0,0c0-5.31-4.304-9.612-9.612-9.612H37.521C32.213,4.513,27.909,8.815,27.909,14.125
			L27.909,14.125z"/>
		<circle fill="#FFFFFF" cx="51.229" cy="14.126" r="7.196"/>
		<g>
			<g>
				
					<ellipse fill="none" stroke="#FF4081" stroke-width="2" stroke-miterlimit="10" cx="12.969" cy="15.875" rx="7.914" ry="5.081"/>
				<circle fill="#FF4081" stroke="#FF4081" stroke-miterlimit="10" cx="12.97" cy="15.875" r="2.96"/>
				<g>
					
						<line fill="#FFFFFF" stroke="#FF4081" stroke-width="2" stroke-linecap="round" stroke-linejoin="round" stroke-miterlimit="10" x1="12.942" y1="7.294" x2="12.942" y2="10.367"/>
					
						<line fill="#FFFFFF" stroke="#FF4081" stroke-width="2" stroke-linecap="round" stroke-linejoin="round" stroke-miterlimit="10" x1="3.979" y1="11.164" x2="6.25" y2="12.914"/>
					
						<line fill="#FFFFFF" stroke="#FF4081" stroke-width="2" stroke-linecap="round" stroke-linejoin="round" stroke-miterlimit="10" x1="9.557" y1="7.599" x2="10.409" y2="10.591"/>
					
						<line fill="#FFFFFF" stroke="#FF4081" stroke-width="2" stroke-linecap="round" stroke-linejoin="round" stroke-miterlimit="10" x1="16.206" y1="7.599" x2="15.354" y2="10.591"/>
					
						<line fill="#FFFFFF" stroke="#FF4081" stroke-width="2" stroke-linecap="round" stroke-linejoin="round" stroke-miterlimit="10" x1="6.427" y1="8.831" x2="7.94" y2="11.551"/>
					
						<line fill="#FFFFFF" stroke="#FF4081" stroke-width="2" stroke-linecap="round" stroke-linejoin="round" stroke-miterlimit="10" x1="21.958" y1="11.164" x2="19.688" y2="12.914"/>
					
						<line fill="#FFFFFF" stroke="#FF4081" stroke-width="2" stroke-linecap="round" stroke-linejoin="round" stroke-miterlimit="10" x1="19.511" y1="8.831" x2="17.999" y2="11.551"/>
				</g>
			</g>
			<circle fill="#FFFFFF" cx="12.061" cy="15.246" r="1.194"/>
		</g>
	</g>
</g>
</svg>
